<?xml version="1.0" encoding="UTF-8" standalone="no"?>
<!-- Created with Inkscape (http://www.inkscape.org/) -->

<svg
   width="494.43796"
   height="494.43796"
   viewBox="0 0 494.43796 494.43796"
   version="1.1"
   id="svg5"
   xml:space="preserve"
   sodipodi:docname="minimap.svg"
   inkscape:version="1.4 (1:1.4+202410161351+e7c3feb100)"
   inkscape:export-filename="minimap.svg"
   inkscape:export-xdpi="96"
   inkscape:export-ydpi="96"
   xmlns:inkscape="http://www.inkscape.org/namespaces/inkscape"
   xmlns:sodipodi="http://sodipodi.sourceforge.net/DTD/sodipodi-0.dtd"
   xmlns="http://www.w3.org/2000/svg"
   xmlns:svg="http://www.w3.org/2000/svg"><sodipodi:namedview
     id="namedview1"
     pagecolor="#ffffff"
     bordercolor="#000000"
     borderopacity="0.25"
     inkscape:showpageshadow="2"
     inkscape:pageopacity="0.0"
     inkscape:pagecheckerboard="0"
     inkscape:deskcolor="#d1d1d1"
     inkscape:zoom="1.7069887"
     inkscape:cx="247.51189"
     inkscape:cy="247.21898"
     inkscape:window-width="1920"
     inkscape:window-height="1052"
     inkscape:window-x="0"
     inkscape:window-y="0"
     inkscape:window-maximized="1"
     inkscape:current-layer="svg5" /><defs
     id="defs2" /><g
     id="background"
     transform="translate(-12.984879,-8.3908081)"><circle
       style="opacity:1;fill:#333333"
       id="path6"
       cx="260.20386"
       cy="255.60979"
       r="247.21898" /></g><g
     id="transit_lines"
     transform="translate(-4.7282375,-10.807386)"><path
       style="fill:none;stroke:#ffd42a"
       d="m 68.221634,312.73878 30.733508,18.23746 14.184698,39.51451 33.09762,11.82058 20.60158,0.33773 15.53562,10.80739 34.78628,11.48285 26.00528,32.75989 8.44327,36.13721 0.33773,28.03166"
       id="path10" /><path
       style="fill:none;stroke:#0000ff"
       d="m 260.39049,305.3087 -16.21108,18.23746 -18.91293,-0.33773 -1.35092,35.46174 35.79947,22.62797 -2.02638,120.56992"
       id="path11" /><path
       style="fill:none;stroke:#00ff00"
       d="m 417.43534,306.65962 -12.49604,16.54881 0.33773,19.25066 -13.1715,8.781 0.33773,12.83378 -13.50924,12.15831 -29.04485,-0.33773 -22.62797,24.31662 -29.04485,3.03958 -26.68074,34.11081 -8.10554,35.79947 -0.67546,27.69393"
       id="path12" /><path
       style="fill:none;stroke:#ff0000"
       d="m 68.221634,312.73878 30.733508,18.23746 14.184698,39.51451 33.09762,11.82058 20.60158,0.33773 15.53562,10.80739 34.78628,11.48285 26.00528,32.75989 8.44327,36.13721 0.33773,28.03166"
       id="path7"
       transform="rotate(180,257.08511,258.87768)" /><path
       style="fill:none;stroke:#ff0000"
       d="m 260.39049,305.3087 -16.21108,18.23746 -18.91293,-0.33773 -1.35092,35.46174 35.79947,22.62797 -2.02638,120.56992"
       id="path8"
       transform="rotate(180,257.08511,258.87768)" /><path
       style="fill:none;stroke:#ff0000"
       d="m 417.43534,306.65962 -12.49604,16.54881 0.33773,19.25066 -13.1715,8.781 0.33773,12.83378 -13.50924,12.15831 -29.04485,-0.33773 -22.62797,24.31662 -29.04485,3.03958 -26.68074,34.11081 -8.10554,35.79947 -0.67546,27.69393"
       id="path9"
       transform="rotate(180,257.08511,258.87768)" /></g><g
     id="hero_icons"
     transform="translate(-4.7282375,-10.807386)"><circle
       style="fill:#ff4801;fill-opacity:1;stroke:none;stroke-width:1.0665"
       id="path38"
       cx="167.23997"
       cy="224.41968"
       r="17.5" /><circle
       style="fill:#ffffff;fill-opacity:1;stroke:none;stroke-width:1.51919"
       id="circle39"
       cx="129.46082"
       cy="301.39743"
       r="17.5" /></g><g
     id="icon_shrink"
     transform="translate(-12.929815,-40.098734)"><circle
       style="fill:#ffffff;fill-opacity:1;stroke:none;stroke-width:1.0665"
       id="good"
       cx="346.98627"
       cy="243.43045"
       r="17.5" /><circle
       style="fill:#ff5900;fill-opacity:1;stroke:none;stroke-width:1.0665"
       id="circle40"
       cx="369.54861"
       cy="224.77475"
       r="17.5" /></g><g
     id="player_icon"
     transform="translate(4.6548069,72.794161)"><rect
       style="fill:#ffffff;stroke:none;stroke-width:33.588;stroke-dasharray:none"
       id="rect1"
       width="4.7700262"
       height="4.7700262"
       x="83.225288"
       y="-448.06155"
       transform="matrix(-0.85924451,0.51156512,-0.85924451,-0.51156512,0,0)" /><rect
       style="fill:#333333;stroke:none;stroke-width:18.3442;stroke-dasharray:none"
       id="rect2"
       width="3.1301293"
       height="4.9066892"
       x="310.58551"
       y="269.3392" /><circle
       style="fill:#00ffff;stroke:#ffffff;stroke-width:0.841667;stroke-dasharray:none"
       id="path36"
       cx="309.95639"
       cy="271.7796"
       r="2.1041667" /></g><g
     id="g1"><g
       id="buildings_enemy"
       transform="translate(-4.728231,-10.807384)"><rect
         style="fill:#ff0000;stroke:#800000;stroke-width:1.24174"
         id="rect12"
         width="23.275223"
         height="23.694603"
         x="-202.11887"
         y="-21.729277"
         transform="matrix(-0.70648474,-0.70772827,0.70648474,-0.70772827,0,0)" /><rect
         style="fill:#ff0000;stroke:#800000;stroke-width:1.24174"
         id="rect13"
         width="23.275223"
         height="23.694603"
         x="-226.70554"
         y="-98.71032"
         transform="matrix(-0.70648474,-0.70772827,0.70648474,-0.70772827,0,0)" /><rect
         style="fill:#ff0000;stroke:#800000;stroke-width:1.24174"
         id="rect14"
         width="23.275223"
         height="23.694603"
         x="-349.10651"
         y="63.170452"
         transform="matrix(-0.70648474,-0.70772827,0.70648474,-0.70772827,0,0)" /><rect
         style="fill:#ff0000;stroke:#800000;stroke-width:1.24174"
         id="rect17"
         width="23.275223"
         height="23.694603"
         x="-341.6286"
         y="8.7891874"
         transform="matrix(-0.70648474,-0.70772827,0.70648474,-0.70772827,0,0)" /><rect
         style="fill:#ff0000;stroke:#800000;stroke-width:1.24174"
         id="rect18"
         width="23.275223"
         height="23.694603"
         x="-282.41751"
         y="77.803108"
         transform="matrix(-0.70648474,-0.70772827,0.70648474,-0.70772827,0,0)" /><rect
         style="fill:#ff0000;stroke:#800000;stroke-width:1.24174"
         id="rect19"
         width="23.275223"
         height="23.694603"
         x="-240.01366"
         y="56.657635"
         transform="matrix(-0.70648474,-0.70772827,0.70648474,-0.70772827,0,0)" /><rect
         style="fill:#ff0000;stroke:#800000;stroke-width:1.24174"
         id="rect20"
         width="23.275223"
         height="23.694603"
         x="-301.87253"
         y="118.17907"
         transform="matrix(-0.70648474,-0.70772827,0.70648474,-0.70772827,0,0)" /><rect
         style="fill:#ff0000;stroke:#800000;stroke-width:1.24174"
         id="rect21"
         width="23.275223"
         height="23.694603"
         x="-393.43512"
         y="160.81369"
         transform="matrix(-0.70648474,-0.70772827,0.70648474,-0.70772827,0,0)" /><rect
         style="fill:#ff0000;stroke:#800000;stroke-width:1.24174"
         id="rect22"
         width="23.275223"
         height="23.694603"
         x="-473.13376"
         y="154.12915"
         transform="matrix(-0.70648474,-0.70772827,0.70648474,-0.70772827,0,0)" /><rect
         style="fill:#ff0000;stroke:#800000;stroke-width:1.24174"
         id="rect23"
         width="23.275223"
         height="23.694603"
         x="-257.11081"
         y="104.12388"
         transform="matrix(-0.70648474,-0.70772827,0.70648474,-0.70772827,0,0)" /><rect
         style="fill:#ff0000;stroke:#800000;stroke-width:1.24174"
         id="rect24"
         width="23.275223"
         height="23.694603"
         x="-274.01639"
         y="125.75352"
         transform="matrix(-0.70648474,-0.70772827,0.70648474,-0.70772827,0,0)" /><rect
         style="fill:#ff0000;stroke:#800000;stroke-width:1.24174"
         id="rect25"
         width="23.275223"
         height="23.694603"
         x="-237.67419"
         y="84.687248"
         transform="matrix(-0.70648474,-0.70772827,0.70648474,-0.70772827,0,0)" /></g><g
       id="g36"
       transform="translate(-4.728231,-10.807384)"><rect
         style="opacity:1;fill:#808000;stroke:#ffff00;stroke-width:1.24174"
         id="rect25-3"
         width="23.275223"
         height="23.694603"
         x="-273.80688"
         y="-181.38525"
         transform="matrix(-0.70648474,-0.70772827,0.70648474,-0.70772827,0,0)" /><rect
         style="opacity:1;fill:#808000;stroke:#ffff00;stroke-width:1.24174"
         id="rect26"
         width="23.275223"
         height="23.694603"
         x="-354.51544"
         y="-191.78395"
         transform="matrix(-0.70648474,-0.70772827,0.70648474,-0.70772827,0,0)" /><rect
         style="opacity:1;fill:#808000;stroke:#ffff00;stroke-width:1.24174"
         id="rect27"
         width="23.275223"
         height="23.694603"
         x="-449.45624"
         y="-148.13316"
         transform="matrix(-0.70648474,-0.70772827,0.70648474,-0.70772827,0,0)" /><rect
         style="opacity:1;fill:#000080;stroke:#0000ff;stroke-width:1.24174"
         id="rect28"
         width="23.275223"
         height="23.694603"
         x="-469.08267"
         y="-104.88634"
         transform="matrix(-0.70648474,-0.70772827,0.70648474,-0.70772827,0,0)" /><rect
         style="opacity:1;fill:#000080;stroke:#0000ff;stroke-width:1.24174"
         id="rect29"
         width="23.275223"
         height="23.694603"
         x="-402.90338"
         y="-86.707054"
         transform="matrix(-0.70648474,-0.70772827,0.70648474,-0.70772827,0,0)" /><rect
         style="opacity:1;fill:#000080;stroke:#0000ff;stroke-width:1.24174"
         id="rect30"
         width="23.275223"
         height="23.694603"
         x="-407.34109"
         y="-33.003925"
         transform="matrix(-0.70648474,-0.70772827,0.70648474,-0.70772827,0,0)" /><rect
         style="opacity:1;fill:#008000;stroke:#00ff00;stroke-width:1.24174"
         id="rect31"
         width="23.275223"
         height="23.694603"
         x="-509.96448"
         y="-86.275185"
         transform="matrix(-0.70648474,-0.70772827,0.70648474,-0.70772827,0,0)" /><rect
         style="opacity:1;fill:#008000;stroke:#00ff00;stroke-width:1.24174"
         id="rect32"
         width="23.275223"
         height="23.694603"
         x="-548.87396"
         y="-6.1987262"
         transform="matrix(-0.70648474,-0.70772827,0.70648474,-0.70772827,0,0)" /><rect
         style="opacity:1;fill:#008000;stroke:#00ff00;stroke-width:1.24174"
         id="rect33"
         width="23.275223"
         height="23.694603"
         x="-522.59686"
         y="68.754448"
         transform="matrix(-0.70648474,-0.70772827,0.70648474,-0.70772827,0,0)" /><rect
         style="opacity:1;fill:#f9f9f9;stroke:#808080;stroke-width:1.24174"
         id="rect34"
         width="23.275223"
         height="23.694603"
         x="-493.71658"
         y="-128.16812"
         transform="matrix(-0.70648474,-0.70772827,0.70648474,-0.70772827,0,0)" /><rect
         style="opacity:1;fill:#f9f9f9;stroke:#808080;stroke-width:1.24174"
         id="rect35"
         width="23.275223"
         height="23.694603"
         x="-477.8251"
         y="-148.78369"
         transform="matrix(-0.70648474,-0.70772827,0.70648474,-0.70772827,0,0)" /><rect
         style="opacity:1;fill:#f9f9f9;stroke:#808080;stroke-width:1.24174"
         id="rect36"
         width="23.275223"
         height="23.694603"
         x="-511.28931"
         y="-115.99436"
         transform="matrix(-0.70648474,-0.70772827,0.70648474,-0.70772827,0,0)" /></g></g></svg>
